<svg xmlns="http://www.w3.org/2000/svg" xmlns:xlink="http://www.w3.org/1999/xlink" width="261" height="99.034" viewBox="0 0 261 99.034">
  <defs>
    <style>
      .cls-1 {
        fill: url(#linear-gradient);
      }

      .cls-2 {
        fill: #707070;
        font-size: 20px;
        font-family: SegoeUI, Segoe UI;
      }

      .cls-3 {
        opacity: 0.66;
        fill: url(#radial-gradient);
      }

      .cls-4 {
        fill: url(#linear-gradient-2);
      }

      .cls-5, .cls-7 {
        fill: none;
      }

      .cls-5 {
        stroke: #e6ff81;
        stroke-width: 5px;
      }

      .cls-6 {
        stroke: none;
      }
    </style>
    <linearGradient id="linear-gradient" x1="0.5" y1="1" x2="0.5" gradientUnits="objectBoundingBox">
      <stop offset="0" stop-color="#e6ff81"/>
      <stop offset="0.161" stop-color="#e6ff81"/>
      <stop offset="1" stop-color="#d6ee77"/>
    </linearGradient>
    <radialGradient id="radial-gradient" cx="0.5" cy="1" r="0.705" gradientTransform="translate(-0.206 1.5) rotate(-90) scale(1 0.706)" gradientUnits="objectBoundingBox">
      <stop offset="0" stop-color="#f4ffc9" stop-opacity="0.839"/>
      <stop offset="1" stop-color="#f4ffc9" stop-opacity="0"/>
    </radialGradient>
    <linearGradient id="linear-gradient-2" x1="0.5" x2="0.5" y2="1" gradientUnits="objectBoundingBox">
      <stop offset="0" stop-color="#f4ffc9"/>
      <stop offset="0.057" stop-color="#f4ffc9"/>
      <stop offset="0.298" stop-color="#f4ffc9" stop-opacity="0.576"/>
      <stop offset="1" stop-color="#f4ffc9" stop-opacity="0.439"/>
    </linearGradient>
  </defs>
  <g id="green-button-book-now" transform="translate(-61 -332)">
    <rect id="Rectangle_7" data-name="Rectangle 7" class="cls-1" width="261" height="99" rx="20" transform="translate(61 332)"/>
    <text id="Book_Now" data-name="Book Now" class="cls-2" transform="translate(146 390)"><tspan x="0" y="0">Book Now</tspan></text>
    <path id="Rectangle_8" data-name="Rectangle 8" class="cls-3" d="M0,0H261a0,0,0,0,1,0,0V22a20,20,0,0,1-20,20H20A20,20,0,0,1,0,22V0A0,0,0,0,1,0,0Z" transform="translate(61 389)"/>
    <path id="Path_3" data-name="Path 3" class="cls-4" d="M20,0H241a20,20,0,0,1,20,20V50s-50.8-7.867-129.733-8.4S0,50,0,50V20A20,20,0,0,1,20,0Z" transform="translate(61 332)"/>
    <g id="Rectangle_3" data-name="Rectangle 3" class="cls-5" transform="translate(61 332)">
      <rect class="cls-6" width="261" height="99.034" rx="20"/>
      <rect class="cls-7" x="2.5" y="2.5" width="256" height="94.034" rx="17.5"/>
    </g>
  </g>
</svg>
